# xmcd
#
# Track frame offsets:
#	150
#	17281
#	33448
#	48575
#	63917
#	84498
#	99530
#	109258
#	123394
#	144044
#	158399
#	168895
#	183785
#	192905
#	208990
#	221306
#	233749
#	247482
#	264055
#	275372
#	288168
#	306009
#
# Disc length: 4269 seconds
#
# Revision: 1
# Processed by: cddbd v1.5.2PL0 Copyright (c) Steve Scherf et al.
# Submitted via: audiograbber 1.83.01
#
DISCID=2310ab16
DTITLE=Rainer Baumann Band - "Fooling Around" and "Adoring Jimmy Reed"
DYEAR=2010
DGENRE=Blues
TTITLE0=Fooling Around
TTITLE1=Someone To Talk To
TTITLE2=Play Something Sweet
TTITLE3=I Guess You Want Me Now
TTITLE4=Jonah And The Whale
TTITLE5=Early In The Morning
TTITLE6=Mama And Papa
TTITLE7=I've Been Living With The Blues
TTITLE8=Slowhand
TTITLE9=Hello Good Looking
TTITLE10=My Old Car
TTITLE11=I'm Going Upside Your Head
TTITLE12=I'm A Love You
TTITLE13=Cold And Lonesome
TTITLE14=Jimmy Reed
TTITLE15=Honest I Do
TTITLE16=Blues For Twelve Strings
TTITLE17=Meet Me
TTITLE18=Shame Shame Shame
TTITLE19=You Got Me Dizzy
TTITLE20=Fifteen Years
TTITLE21=Boogie In The Dark
EXTD=
EXTT0=
EXTT1=
EXTT2=
EXTT3=
EXTT4=
EXTT5=
EXTT6=
EXTT7=
EXTT8=
EXTT9=
EXTT10=
EXTT11=
EXTT12=
EXTT13=
EXTT14=
EXTT15=
EXTT16=
EXTT17=
EXTT18=
EXTT19=
EXTT20=
EXTT21=
PLAYORDER=
